# xmcd
#
# Track frame offsets:
#	150
#	16611
#	36307
#	54788
#	70860
#	84590
#	105174
#	139352
#	155775
#	177263
#	196915
#	215255
#	235423
#	248291
#	261108
#
# Disc length: 3659 seconds
#
# Revision: 0
# Processed by: cddbd v1.5.1PL2 Copyright (c) Steve Scherf et al.
# Submitted via: EasyCDDAExtractor 10.0.1.1
#
DISCID=be0e490f
DTITLE=Various Artist - Здравствуй, блюз!
DYEAR=1900
DGENRE=
TTITLE0=М. Мишурис - I Got Money
TTITLE1=Petrovitch Harmonicaman and The Hot Rod Band - Oh-Yeh
TTITLE2=Арсен Шомахов - Let Me Be Your Romeo
TTITLE3=Владимир Русинов и  Jumping Cats - Lucky You
TTITLE4=Svet Boogie Band - Nothing But Love
TTITLE5=Big Blues Revival - Good Morning Little Schoolgirl
TTITLE6=Александр Ляпин - Wild Stone Blues
TTITLE7=Роман Гегарт и King Biscuit - Shake Your Hips
TTITLE8=Big Bob Korablin - Stop Breaking Down
TTITLE9=Crossroadz - В одиночестве есть кайф
TTITLE10=Станция Мир - Потерянны ребенок
TTITLE11=Blackmailers Blues Band - Blues For Kusturica
TTITLE12=Dr. Nick - Terrible Days
TTITLE13=Александр "Long Tall Шурик" Соловьев - Sunny Blues
TTITLE14=Big Val and Svet - Why Oh Why?
EXTD=
EXTT0=
EXTT1=
EXTT2=
EXTT3=
EXTT4=
EXTT5=
EXTT6=
EXTT7=
EXTT8=
EXTT9=
EXTT10=
EXTT11=
EXTT12=
EXTT13=
EXTT14=
PLAYORDER=
